<svg width="40" height="40" viewBox="0 0 40 40" fill="none" xmlns="http://www.w3.org/2000/svg">
<path fill-rule="evenodd" clip-rule="evenodd" d="M40 0L0 0L0 40L40 40L40 0ZM14.4111 11.1111L14.4111 28.8889H21.0143C23.554 28.8889 25.5857 26.8572 25.5857 24.3175V23.3016C25.5857 21.854 24.9254 20.5841 23.9095 19.746C24.646 18.9587 25.0778 17.8667 25.0778 16.6984V15.6825C25.0778 13.1428 23.046 11.1111 20.5064 11.1111L14.4111 11.1111ZM21.0143 26.3492H16.9508V21.2698H21.0143C22.1572 21.2698 23.046 22.1587 23.046 23.3016V24.3175C23.046 25.4603 22.1572 26.3492 21.0143 26.3492ZM20.5064 18.7302H16.9508V13.6508H20.5064C21.6492 13.6508 22.5381 14.5397 22.5381 15.6825V16.6984C22.5381 17.8413 21.6492 18.7302 20.5064 18.7302Z" fill="#F03603"/>
</svg>
