<svg width="48" height="48" viewBox="0 0 48 48" fill="none" xmlns="http://www.w3.org/2000/svg">
<path d="M36.414 9.49997C36.414 7.57036 34.5812 6 32.6516 6C30.722 6 29.0032 7.57036 29.0032 9.49997L28.9989 15.8115C28.4009 15.4351 27.6975 15.2135 26.9402 15.2135C25.6926 15.2135 24.5869 15.8051 23.8791 16.7193C23.1778 15.7319 22.0269 15.0866 20.7233 15.0866C19.9618 15.0866 19.2519 15.3103 18.6539 15.6911V13.3334C18.6539 11.4038 16.8232 9.67637 14.8936 9.67637C12.964 9.67637 11 11.4038 11 13.3334V28.368C11 28.5293 11.0129 28.6863 11.0237 28.7702L11.0194 28.9531C11.0194 36.1466 16.3457 42 23.5392 42C34.5984 42 36.5173 31.9131 36.5173 24.4227L36.4183 9.49782L36.414 9.49997Z" fill="#FFC83C"/>
<path d="M36.414 9.49997C36.414 7.57036 34.5812 6 32.6516 6C30.722 6 29.0032 7.57036 29.0032 9.49997L28.9989 15.8115C28.4009 15.4351 27.6975 15.2135 26.9402 15.2135C25.6926 15.2135 24.5869 15.8051 23.8791 16.7193C23.1778 15.7319 22.0269 15.0866 20.7233 15.0866C19.9618 15.0866 19.2519 15.3103 18.6539 15.6911V13.3334C18.6539 11.4038 16.8232 9.67637 14.8936 9.67637C12.964 9.67637 11 11.4038 11 13.3334V28.368C11 28.5293 11.0129 28.6863 11.0237 28.7702L11.0194 28.9531C11.0194 36.1466 16.3457 42 23.5392 42C34.5984 42 36.5173 31.9131 36.5173 24.4227L36.4183 9.49782L36.414 9.49997ZM24.8859 19.0878C24.8859 17.9541 25.8066 17.0334 26.9402 17.0334C28.0739 17.0334 28.9946 17.9541 28.9946 19.0878V21.3723H26.2669C25.7808 21.3723 25.3161 21.4713 24.8859 21.6434V19.0878ZM18.6668 18.9609C18.6668 17.8272 19.5875 16.9065 20.7212 16.9065C21.8549 16.9065 22.7756 17.8272 22.7756 18.9609V21.9144C22.7756 23.0481 21.8527 23.9688 20.7212 23.9688C19.5897 23.9688 18.6668 23.0481 18.6668 21.9144V18.9609ZM34.3747 29.3317C34.3747 29.3317 34.3747 29.3425 34.3747 29.3468C34.0348 31.6335 33.4411 33.5846 32.5871 35.1679C30.7629 38.556 27.8029 40.2016 23.5349 40.2016C17.531 40.2016 12.8242 35.2711 12.8134 28.9746L12.8177 28.8133V28.6627L12.8027 28.5358C12.8005 28.5121 12.7941 28.439 12.7941 28.368V13.3334C12.7941 12.4471 13.8912 11.4748 14.8893 11.4748C15.8875 11.4748 16.8512 12.4299 16.8512 13.3334V18.8727C16.8512 18.9028 16.8469 18.9307 16.8469 18.9609V21.9144C16.8469 24.0549 18.5808 25.7887 20.7212 25.7887C21.4225 25.7887 22.0743 25.5972 22.6422 25.2703C22.6422 25.2617 22.6422 25.2531 22.6422 25.2445C22.7175 25.9974 23.0272 26.7137 23.5414 27.2795C24.0534 27.8409 24.731 28.2195 25.4645 28.368C23.9652 29.549 23.1542 31.2376 23.1542 33.3028C23.1542 33.7997 23.5564 34.202 24.0534 34.202C24.5503 34.202 24.9526 33.7997 24.9526 33.3028C24.9526 29.8265 28.0244 28.7724 29.8551 28.454C30.7457 28.2991 30.7306 27.6022 30.7177 27.4645C30.7113 27.3806 30.6209 26.6384 29.7153 26.6384H26.1508C25.6646 26.6384 25.1956 26.4319 24.8687 26.0705C24.5352 25.7048 24.3803 25.2294 24.4277 24.7325C24.5116 23.8569 25.3183 23.1729 26.2648 23.1729H30.5521C30.6102 23.1836 30.6704 23.1901 30.7328 23.1901C32.017 23.1901 32.9808 23.5558 33.596 24.2764C34.4629 25.2896 34.7318 27.0385 34.3726 29.3317H34.3747ZM30.9931 21.4003C30.935 21.3852 30.8748 21.3788 30.8124 21.3766V19.0878C30.8124 19.0168 30.8059 18.948 30.8016 18.8791V9.49997C30.8016 8.60938 31.6836 7.80054 32.6516 7.80054C33.6197 7.80054 34.6135 8.62659 34.6135 9.51288L34.7017 22.8351C33.7918 21.9316 32.5462 21.4519 30.9909 21.4024L30.9931 21.4003Z" fill="black"/>
</svg>
